<svg width="91" height="40" viewBox="0 0 91 40" fill="none" xmlns="http://www.w3.org/2000/svg">
<path d="M1.04715 10.3073V1.65986H6.26602V2.58879H2.0943V5.51068H5.99579V6.4396H2.0943V9.37839H6.33358V10.3073H1.04715ZM12.9063 3.82172C12.8556 3.39386 12.6501 3.06169 12.2898 2.82524C11.9295 2.58879 11.4876 2.47056 10.964 2.47056C10.5812 2.47056 10.2462 2.53249 9.95906 2.65635C9.67475 2.7802 9.45237 2.9505 9.29192 3.16725C9.13429 3.384 9.05547 3.63031 9.05547 3.90617C9.05547 4.137 9.11036 4.33545 9.22014 4.50153C9.33274 4.66479 9.4763 4.80132 9.65082 4.9111C9.82535 5.01807 10.0083 5.10674 10.1997 5.17711C10.3911 5.24467 10.5671 5.29956 10.7275 5.34178L11.6058 5.57824C11.831 5.63735 12.0815 5.71898 12.3574 5.82314C12.6361 5.92729 12.9021 6.06944 13.1554 6.2496C13.4116 6.42694 13.6227 6.65495 13.7888 6.93362C13.9548 7.2123 14.0379 7.55432 14.0379 7.95966C14.0379 8.42694 13.9154 8.84918 13.6705 9.22638C13.4285 9.60358 13.0738 9.90337 12.6065 10.1257C12.142 10.3481 11.5776 10.4593 10.9133 10.4593C10.294 10.4593 9.75779 10.3594 9.30459 10.1595C8.8542 9.95967 8.49952 9.68099 8.24055 9.3235C7.98439 8.966 7.83942 8.5508 7.80564 8.07789H8.88657C8.91472 8.40442 9.0245 8.67466 9.21592 8.88859C9.41015 9.09971 9.65505 9.25734 9.95061 9.3615C10.249 9.46283 10.5699 9.5135 10.9133 9.5135C11.313 9.5135 11.6719 9.44876 11.99 9.31927C12.3081 9.18697 12.56 9.004 12.7458 8.77036C12.9316 8.53391 13.0245 8.25805 13.0245 7.94277C13.0245 7.65565 12.9443 7.42201 12.7838 7.24186C12.6234 7.0617 12.4123 6.91533 12.1505 6.80273C11.8887 6.69013 11.6058 6.59161 11.3018 6.50716L10.2377 6.20315C9.56215 6.00892 9.02732 5.73165 8.63323 5.37134C8.23914 5.01103 8.04209 4.53953 8.04209 3.95684C8.04209 3.47267 8.17299 3.05043 8.43478 2.69012C8.69938 2.327 9.05406 2.04551 9.49882 1.84565C9.94639 1.64297 10.446 1.54163 10.9978 1.54163C11.5551 1.54163 12.0505 1.64156 12.484 1.84142C12.9175 2.03847 13.261 2.3087 13.5143 2.65212C13.7705 2.99554 13.9056 3.38541 13.9197 3.82172H12.9063ZM22.7418 4.36219H21.6947C21.6328 4.06099 21.5244 3.79639 21.3696 3.56838C21.2176 3.34037 21.0318 3.14896 20.8122 2.99414C20.5955 2.8365 20.3548 2.71827 20.0902 2.63946C19.8256 2.56064 19.5497 2.52123 19.2626 2.52123C18.739 2.52123 18.2647 2.65353 17.8396 2.91813C17.4174 3.18274 17.081 3.5726 16.8305 4.08774C16.5828 4.60287 16.4589 5.23482 16.4589 5.98359C16.4589 6.73236 16.5828 7.36431 16.8305 7.87944C17.081 8.39457 17.4174 8.78444 17.8396 9.04904C18.2647 9.31364 18.739 9.44594 19.2626 9.44594C19.5497 9.44594 19.8256 9.40654 20.0902 9.32772C20.3548 9.2489 20.5955 9.13208 20.8122 8.97726C21.0318 8.81962 21.2176 8.6268 21.3696 8.39879C21.5244 8.16797 21.6328 7.90337 21.6947 7.60498H22.7418C22.663 8.04693 22.5195 8.44242 22.3112 8.79147C22.1029 9.14053 21.8439 9.4375 21.5342 9.6824C21.2246 9.92448 20.877 10.1089 20.4913 10.2355C20.1085 10.3622 19.6989 10.4255 19.2626 10.4255C18.5251 10.4255 17.8692 10.2454 17.295 9.88507C16.7207 9.52476 16.2689 9.01245 15.9396 8.34812C15.6102 7.6838 15.4456 6.89562 15.4456 5.98359C15.4456 5.07155 15.6102 4.28337 15.9396 3.61905C16.2689 2.95473 16.7207 2.44241 17.295 2.0821C17.8692 1.72179 18.5251 1.54163 19.2626 1.54163C19.6989 1.54163 20.1085 1.60497 20.4913 1.73164C20.877 1.85831 21.2246 2.0441 21.5342 2.289C21.8439 2.53108 22.1029 2.82665 22.3112 3.1757C22.5195 3.52193 22.663 3.91743 22.7418 4.36219ZM31.754 5.98359C31.754 6.89562 31.5894 7.6838 31.26 8.34812C30.9307 9.01245 30.4789 9.52476 29.9046 9.88507C29.3304 10.2454 28.6745 10.4255 27.937 10.4255C27.1995 10.4255 26.5436 10.2454 25.9694 9.88507C25.3951 9.52476 24.9433 9.01245 24.614 8.34812C24.2846 7.6838 24.12 6.89562 24.12 5.98359C24.12 5.07155 24.2846 4.28337 24.614 3.61905C24.9433 2.95473 25.3951 2.44241 25.9694 2.0821C26.5436 1.72179 27.1995 1.54163 27.937 1.54163C28.6745 1.54163 29.3304 1.72179 29.9046 2.0821C30.4789 2.44241 30.9307 2.95473 31.26 3.61905C31.5894 4.28337 31.754 5.07155 31.754 5.98359ZM30.7407 5.98359C30.7407 5.23482 30.6154 4.60287 30.3649 4.08774C30.1171 3.5726 29.7808 3.18274 29.3557 2.91813C28.9335 2.65353 28.4606 2.52123 27.937 2.52123C27.4134 2.52123 26.9391 2.65353 26.514 2.91813C26.0918 3.18274 25.7554 3.5726 25.5049 4.08774C25.2572 4.60287 25.1333 5.23482 25.1333 5.98359C25.1333 6.73236 25.2572 7.36431 25.5049 7.87944C25.7554 8.39457 26.0918 8.78444 26.514 9.04904C26.9391 9.31364 27.4134 9.44594 27.937 9.44594C28.4606 9.44594 28.9335 9.31364 29.3557 9.04904C29.7808 8.78444 30.1171 8.39457 30.3649 7.87944C30.6154 7.36431 30.7407 6.73236 30.7407 5.98359ZM33.5385 10.3073V1.65986H34.5857V9.37839H38.6054V10.3073H33.5385ZM41.151 10.3073H40.0532L43.2284 1.65986H44.3094L47.4846 10.3073H46.3868L43.8027 3.02792H43.7351L41.151 10.3073ZM41.5564 6.9294H45.9814V7.85833H41.5564V6.9294Z" fill="black"/>
<path d="M18.6875 34.1976L16.7578 34.3753C15.8268 28.5355 14.8197 23.5335 13.7363 19.3694C13.1777 20.6898 12.5599 22.5517 11.8828 24.9554C11.2227 27.3421 10.7656 28.8909 10.5117 29.6019C10.4779 29.6019 10.4186 29.6103 10.334 29.6273C10.2663 29.6273 10.207 29.6273 10.1562 29.6273C9.91927 29.6273 9.52995 29.6019 8.98828 29.5511C8.44661 29.5003 8.09961 29.4749 7.94727 29.4749C7.93034 28.984 7.4987 27.3506 6.65234 24.5745C5.80599 21.7816 5.29818 19.9957 5.12891 19.2171C4.82422 21.9593 3.63932 26.9528 1.57422 34.1976L0 34.0452C0.236979 32.2002 0.820964 29.2972 1.75195 25.3362C2.68294 21.3753 3.23307 18.3115 3.40234 16.1448C3.70703 16.111 3.95247 16.0941 4.13867 16.0941C4.30794 16.0941 4.93424 16.1618 6.01758 16.2972C6.25456 16.331 6.5931 17.1012 7.0332 18.6077C7.49023 20.0973 7.94727 21.7392 8.4043 23.5335C8.86133 25.3278 9.14909 26.3857 9.26758 26.7073C9.74154 25.5394 10.3086 23.6435 10.9688 21.0198C11.6458 18.3961 12.1198 16.7288 12.3906 16.0179C12.6615 16.0348 13.5163 16.111 14.9551 16.2464C15.3952 17.956 15.8184 19.8011 16.2246 21.7816C16.6478 23.762 17.0964 26.0133 17.5703 28.5355C18.0612 31.0576 18.4336 32.945 18.6875 34.1976ZM27.3215 21.4515L28.5403 21.68V21.9339C28.5403 23.0849 28.608 25.0316 28.7434 27.7737C28.8958 30.5159 29.0312 32.6318 29.1497 34.1214C28.8111 34.2568 28.4895 34.3245 28.1848 34.3245C27.914 34.3245 27.6093 34.2822 27.2708 34.1976L27.0676 33.5374C25.9843 34.1468 24.9517 34.4515 23.97 34.4515C23.2421 34.4515 22.6073 34.2822 22.0657 33.9437C21.5409 33.6051 21.1347 33.1904 20.8469 32.6995C20.5592 32.1917 20.3306 31.5739 20.1614 30.846C19.9921 30.1012 19.8821 29.4326 19.8313 28.8401C19.7974 28.2308 19.7805 27.5537 19.7805 26.8089C19.7805 24.6422 19.9159 22.6533 20.1868 20.8421L21.3293 21.096C21.4478 21.6546 21.5071 22.264 21.5071 22.9241C21.5071 23.2965 21.4817 23.9398 21.4309 24.8538C21.3971 25.7679 21.3801 26.4619 21.3801 26.9359C21.3801 27.7653 21.414 28.4847 21.4817 29.0941C21.5663 29.6865 21.7102 30.2705 21.9133 30.846C22.1334 31.4046 22.4635 31.8362 22.9036 32.1409C23.3437 32.4456 23.8938 32.598 24.554 32.598C25.2987 32.598 26.1028 32.4287 26.9661 32.0901C26.9999 31.4638 27.0338 29.8642 27.0676 27.2913C27.1015 24.7015 27.1861 22.7549 27.3215 21.4515ZM32.9849 24.0413L33.0864 34.096C32.8325 34.2314 32.5278 34.2991 32.1724 34.2991C31.9015 34.2991 31.5968 34.2568 31.2583 34.1722C31.3091 33.1058 31.3429 31.0068 31.3599 27.8753C31.3768 24.7438 31.4445 22.4248 31.563 20.9183L32.7056 21.1722L32.7817 22.5941C33.6789 21.6461 34.7114 21.1722 35.8794 21.1722C36.4718 21.1722 36.9458 21.2145 37.3013 21.2991C37.6567 21.3838 37.9953 21.5954 38.3169 21.9339C38.6554 22.2555 38.9093 22.6872 39.0786 23.2288C39.2479 23.7705 39.4002 24.5491 39.5356 25.5648C39.6711 26.5635 39.7642 27.7399 39.8149 29.0941C39.8826 30.4313 39.925 32.124 39.9419 34.1722C39.8403 34.206 39.6457 34.223 39.3579 34.223C38.7485 34.223 38.2746 34.1468 37.936 33.9944C37.8683 33.7236 37.8345 33.275 37.8345 32.6487C37.8345 32.3271 37.8429 31.7262 37.8599 30.846C37.8937 29.9489 37.9106 29.2549 37.9106 28.764C37.9106 27.9515 37.8768 27.2405 37.8091 26.6312C37.7583 26.0218 37.6483 25.4209 37.479 24.8284C37.3267 24.236 37.0812 23.779 36.7427 23.4573C36.4211 23.1357 36.0148 22.9749 35.5239 22.9749C34.9653 22.9749 34.5252 23.0172 34.2036 23.1019C33.8989 23.1865 33.6789 23.2881 33.5435 23.4066C33.425 23.525 33.2388 23.7366 32.9849 24.0413ZM51.1912 34.8577L49.7947 34.5784C49.7947 34.2399 49.7862 33.986 49.7693 33.8167C48.8721 34.3922 47.9242 34.68 46.9255 34.68C45.3852 34.68 44.1833 34.0198 43.3201 32.6995C42.4737 31.3792 42.0505 29.8812 42.0505 28.2054C42.0505 27.3421 42.1098 26.5296 42.2283 25.7679C42.3637 25.0062 42.5837 24.2275 42.8884 23.4319C43.21 22.6194 43.7009 21.9762 44.3611 21.5023C45.0382 21.0283 45.8507 20.7913 46.7986 20.7913C47.7296 20.7913 48.6013 21.0198 49.4138 21.4769C49.5492 19.6826 49.6169 17.8714 49.6169 16.0433C49.6169 15.2138 49.6085 14.6045 49.5915 14.2151C50.404 14.3675 51.0473 14.5622 51.5212 14.7991L51.1912 34.8577ZM49.5662 32.1409L49.49 23.9651C49.2869 23.542 48.9652 23.2119 48.5251 22.9749C48.102 22.721 47.6449 22.5941 47.154 22.5941C46.4939 22.5941 45.9268 22.8056 45.4529 23.2288C44.9958 23.652 44.6658 24.2191 44.4626 24.93C44.2764 25.624 44.141 26.2757 44.0564 26.8851C43.9887 27.4944 43.9548 28.1377 43.9548 28.8148C43.9548 31.6924 44.9197 33.1312 46.8494 33.1312C47.4926 33.1312 48.0766 33.0465 48.6013 32.8773C49.143 32.6911 49.4646 32.4456 49.5662 32.1409ZM54.1885 21.1468L55.3564 21.4007C55.4919 22.7887 55.6103 24.9723 55.7119 27.9515C55.8135 30.9137 55.8812 32.7503 55.915 33.4612C55.7627 33.986 55.4665 34.2484 55.0264 34.2484C54.7217 34.2484 54.4254 34.1299 54.1377 33.8929C53.8669 33.639 53.6976 33.3343 53.6299 32.9788C53.6637 32.2848 53.7314 30.4821 53.833 27.5706C53.9346 24.6422 54.0531 22.501 54.1885 21.1468ZM54.5439 16.6019C55.001 16.6019 55.3818 16.805 55.6865 17.2112C55.9912 17.6006 56.1435 18.0491 56.1435 18.5569C56.1435 18.9293 56.0504 19.234 55.8643 19.471C55.695 19.6911 55.458 19.8011 55.1533 19.8011C54.6794 19.8011 54.307 19.6064 54.0361 19.2171C53.7653 18.8278 53.6299 18.3707 53.6299 17.846C53.6299 17.4736 53.706 17.1774 53.8584 16.9573C54.0277 16.7204 54.2562 16.6019 54.5439 16.6019ZM59.1916 23.2288L58.6838 21.9339C59.1239 21.4938 59.6825 21.1468 60.3596 20.8929C61.0367 20.622 61.7053 20.4866 62.3655 20.4866C65.2261 20.4866 66.6565 22.958 66.6565 27.9007C66.6565 28.5778 66.6142 29.5765 66.5295 30.8968C66.4618 32.2171 66.428 33.2073 66.428 33.8675C66.2926 34.3922 66.0302 34.6546 65.6409 34.6546C65.3362 34.6546 65.0569 34.5023 64.803 34.1976C64.5491 33.8929 64.4221 33.5543 64.4221 33.1819C64.4221 33.0635 64.4306 32.9788 64.4475 32.928C63.398 33.9437 62.2808 34.4515 61.0959 34.4515C60.1988 34.4515 59.4117 34.1299 58.7346 33.4866C58.0745 32.8265 57.7444 32.0309 57.7444 31.0999C57.7444 29.5257 58.3537 28.1038 59.5725 26.8343C60.8082 25.5648 62.2047 24.93 63.762 24.93C63.8297 24.93 63.8974 24.9385 63.9651 24.9554C64.0328 24.9554 64.109 24.9638 64.1936 24.9808C64.2952 24.9977 64.3713 25.0062 64.4221 25.0062C64.2867 23.0257 63.4996 22.0355 62.0608 22.0355C61.2144 22.0355 60.258 22.4332 59.1916 23.2288ZM64.4983 31.1761C64.5321 29.9912 64.5491 29.0941 64.5491 28.4847C64.5491 27.9769 64.5321 27.2659 64.4983 26.3519H64.2952C63.0933 26.3688 61.9931 26.8174 60.9944 27.6976C60.0126 28.5778 59.5217 29.6442 59.5217 30.8968C59.5217 31.4385 59.6825 31.8701 60.0041 32.1917C60.3427 32.5133 60.7489 32.6741 61.2229 32.6741C61.9677 32.6741 63.0595 32.1748 64.4983 31.1761ZM69.3237 16.7796L70.4917 17.0335L71.0503 33.4612C70.8979 33.986 70.6017 34.2484 70.1616 34.2484C69.8569 34.2484 69.5607 34.1299 69.2729 33.8929C69.0021 33.639 68.8328 33.3343 68.7651 32.9788L69.3237 16.7796Z" fill="black"/>
</svg>
