<svg width="20" height="20" viewBox="0 0 20 20" fill="none" xmlns="http://www.w3.org/2000/svg">
<path fill-rule="evenodd" clip-rule="evenodd" d="M8.33335 1.66666C4.65146 1.66666 1.66669 4.65142 1.66669 8.33332C1.66669 12.0152 4.65146 15 8.33335 15C9.87395 15 11.2925 14.4774 12.4214 13.5999L16.9108 18.0892L16.9893 18.1586C17.3162 18.4128 17.7889 18.3896 18.0893 18.0892C18.4147 17.7638 18.4147 17.2362 18.0893 16.9107L13.5999 12.4214C14.4775 11.2925 15 9.87392 15 8.33332C15 4.65142 12.0153 1.66666 8.33335 1.66666ZM8.33335 3.33332C11.0948 3.33332 13.3334 5.5719 13.3334 8.33332C13.3334 11.0947 11.0948 13.3333 8.33335 13.3333C5.57193 13.3333 3.33335 11.0947 3.33335 8.33332C3.33335 5.5719 5.57193 3.33332 8.33335 3.33332Z" fill="#131313"/>
</svg>
